{
    "asset" : {
        "generator" : "Khronos glTF Blender I/O v1.4.40",
        "version" : "2.0"
    },
    "scene" : 0,
    "scenes" : [
        {
            "name" : "Scene",
            "nodes" : [
                0
            ]
        }
    ],
    "nodes" : [
        {
            "mesh" : 0,
            "name" : "Circle",
            "rotation" : [
                -0.0024711396545171738,
                0.9999932050704956,
                -6.845641109975986e-06,
                0.0027703684754669666
            ],
            "scale" : [
                4.314499855041504,
                2.1575000286102295,
                2.1575000286102295
            ],
            "translation" : [
                0.09201385080814362,
                -0.0012606978416442871,
                -0.00047092075692489743
            ]
        }
    ],
    "materials" : [
        {
            "doubleSided" : true,
            "name" : "cueEnd",
            "pbrMetallicRoughness" : {}
        },
        {
            "doubleSided" : true,
            "name" : "Material.002",
            "pbrMetallicRoughness" : {}
        },
        {
            "doubleSided" : true,
            "name" : "cueFront",
            "pbrMetallicRoughness" : {}
        },
        {
            "doubleSided" : true,
            "name" : "cueBrass",
            "pbrMetallicRoughness" : {}
        },
        {
            "doubleSided" : true,
            "name" : "cueBody",
            "pbrMetallicRoughness" : {}
        },
        {
            "doubleSided" : true,
            "name" : "cueRubber",
            "pbrMetallicRoughness" : {}
        },
        {
            "doubleSided" : true,
            "name" : "cueTip",
            "pbrMetallicRoughness" : {}
        }
    ],
    "meshes" : [
        {
            "name" : "Circle.005",
            "primitives" : [
                {
                    "attributes" : {
                        "POSITION" : 0,
                        "NORMAL" : 1,
                        "TEXCOORD_0" : 2
                    },
                    "indices" : 3,
                    "material" : 0
                },
                {
                    "attributes" : {
                        "POSITION" : 4,
                        "NORMAL" : 5,
                        "TEXCOORD_0" : 6
                    },
                    "indices" : 7,
                    "material" : 1
                },
                {
                    "attributes" : {
                        "POSITION" : 8,
                        "NORMAL" : 9,
                        "TEXCOORD_0" : 10
                    },
                    "indices" : 11,
                    "material" : 2
                },
                {
                    "attributes" : {
                        "POSITION" : 12,
                        "NORMAL" : 13,
                        "TEXCOORD_0" : 14
                    },
                    "indices" : 15,
                    "material" : 3
                },
                {
                    "attributes" : {
                        "POSITION" : 16,
                        "NORMAL" : 17,
                        "TEXCOORD_0" : 18
                    },
                    "indices" : 19,
                    "material" : 4
                },
                {
                    "attributes" : {
                        "POSITION" : 20,
                        "NORMAL" : 21,
                        "TEXCOORD_0" : 22
                    },
                    "indices" : 23,
                    "material" : 5
                },
                {
                    "attributes" : {
                        "POSITION" : 24,
                        "NORMAL" : 25,
                        "TEXCOORD_0" : 26
                    },
                    "indices" : 27,
                    "material" : 6
                }
            ]
        }
    ],
    "accessors" : [
        {
            "bufferView" : 0,
            "componentType" : 5126,
            "count" : 150,
            "max" : [
                -0.5023514032363892,
                0.01068074256181717,
                0.0106806680560112
            ],
            "min" : [
                -0.6131516098976135,
                -0.01068059355020523,
                -0.010680653154850006
            ],
            "type" : "VEC3"
        },
        {
            "bufferView" : 1,
            "componentType" : 5126,
            "count" : 150,
            "type" : "VEC3"
        },
        {
            "bufferView" : 2,
            "componentType" : 5126,
            "count" : 150,
            "type" : "VEC2"
        },
        {
            "bufferView" : 3,
            "componentType" : 5123,
            "count" : 288,
            "type" : "SCALAR"
        },
        {
            "bufferView" : 4,
            "componentType" : 5126,
            "count" : 96,
            "max" : [
                -0.0007403925410471857,
                0.00509754940867424,
                0.005097479093819857
            ],
            "min" : [
                -0.013015140779316425,
                -0.005097399465739727,
                -0.005097463261336088
            ],
            "type" : "VEC3"
        },
        {
            "bufferView" : 5,
            "componentType" : 5126,
            "count" : 96,
            "type" : "VEC3"
        },
        {
            "bufferView" : 6,
            "componentType" : 5126,
            "count" : 96,
            "type" : "VEC2"
        },
        {
            "bufferView" : 7,
            "componentType" : 5123,
            "count" : 144,
            "type" : "SCALAR"
        },
        {
            "bufferView" : 8,
            "componentType" : 5126,
            "count" : 56,
            "max" : [
                -0.2667693495750427,
                0.008578228764235973,
                0.008578156121075153
            ],
            "min" : [
                -0.37121546268463135,
                -0.00857808068394661,
                -0.00857814121991396
            ],
            "type" : "VEC3"
        },
        {
            "bufferView" : 9,
            "componentType" : 5126,
            "count" : 56,
            "type" : "VEC3"
        },
        {
            "bufferView" : 10,
            "componentType" : 5126,
            "count" : 56,
            "type" : "VEC2"
        },
        {
            "bufferView" : 11,
            "componentType" : 5123,
            "count" : 144,
            "type" : "SCALAR"
        },
        {
            "bufferView" : 12,
            "componentType" : 5126,
            "count" : 96,
            "max" : [
                -0.25736939907073975,
                0.007606545463204384,
                0.007606472820043564
            ],
            "min" : [
                -0.2667693495750427,
                -0.007606396451592445,
                -0.00760645791888237
            ],
            "type" : "VEC3"
        },
        {
            "bufferView" : 13,
            "componentType" : 5126,
            "count" : 96,
            "type" : "VEC3"
        },
        {
            "bufferView" : 14,
            "componentType" : 5126,
            "count" : 96,
            "type" : "VEC2"
        },
        {
            "bufferView" : 15,
            "componentType" : 5123,
            "count" : 144,
            "type" : "SCALAR"
        },
        {
            "bufferView" : 16,
            "componentType" : 5126,
            "count" : 191,
            "max" : [
                -0.013015140779316425,
                0.009550808928906918,
                0.009550735354423523
            ],
            "min" : [
                -0.5023514032363892,
                -0.009550660848617554,
                -0.009550720453262329
            ],
            "type" : "VEC3"
        },
        {
            "bufferView" : 17,
            "componentType" : 5126,
            "count" : 191,
            "type" : "VEC3"
        },
        {
            "bufferView" : 18,
            "componentType" : 5126,
            "count" : 191,
            "type" : "VEC2"
        },
        {
            "bufferView" : 19,
            "componentType" : 5123,
            "count" : 288,
            "type" : "SCALAR"
        },
        {
            "bufferView" : 20,
            "componentType" : 5126,
            "count" : 509,
            "max" : [
                -0.6132116317749023,
                0.01068074256181717,
                0.0106806680560112
            ],
            "min" : [
                -0.6168308258056641,
                -0.01068059355020523,
                -0.010680653154850006
            ],
            "type" : "VEC3"
        },
        {
            "bufferView" : 21,
            "componentType" : 5126,
            "count" : 509,
            "type" : "VEC3"
        },
        {
            "bufferView" : 22,
            "componentType" : 5126,
            "count" : 509,
            "type" : "VEC2"
        },
        {
            "bufferView" : 23,
            "componentType" : 5123,
            "count" : 936,
            "type" : "SCALAR"
        },
        {
            "bufferView" : 24,
            "componentType" : 5126,
            "count" : 215,
            "max" : [
                0.0004400666803121567,
                0.004983355291187763,
                0.0049832845106720924
            ],
            "min" : [
                -0.0007403925410471857,
                -0.00498320534825325,
                -0.004983269143849611
            ],
            "type" : "VEC3"
        },
        {
            "bufferView" : 25,
            "componentType" : 5126,
            "count" : 215,
            "type" : "VEC3"
        },
        {
            "bufferView" : 26,
            "componentType" : 5126,
            "count" : 215,
            "type" : "VEC2"
        },
        {
            "bufferView" : 27,
            "componentType" : 5123,
            "count" : 360,
            "type" : "SCALAR"
        }
    ],
    "bufferViews" : [
        {
            "buffer" : 0,
            "byteLength" : 1800,
            "byteOffset" : 0
        },
        {
            "buffer" : 0,
            "byteLength" : 1800,
            "byteOffset" : 1800
        },
        {
            "buffer" : 0,
            "byteLength" : 1200,
            "byteOffset" : 3600
        },
        {
            "buffer" : 0,
            "byteLength" : 576,
            "byteOffset" : 4800
        },
        {
            "buffer" : 0,
            "byteLength" : 1152,
            "byteOffset" : 5376
        },
        {
            "buffer" : 0,
            "byteLength" : 1152,
            "byteOffset" : 6528
        },
        {
            "buffer" : 0,
            "byteLength" : 768,
            "byteOffset" : 7680
        },
        {
            "buffer" : 0,
            "byteLength" : 288,
            "byteOffset" : 8448
        },
        {
            "buffer" : 0,
            "byteLength" : 672,
            "byteOffset" : 8736
        },
        {
            "buffer" : 0,
            "byteLength" : 672,
            "byteOffset" : 9408
        },
        {
            "buffer" : 0,
            "byteLength" : 448,
            "byteOffset" : 10080
        },
        {
            "buffer" : 0,
            "byteLength" : 288,
            "byteOffset" : 10528
        },
        {
            "buffer" : 0,
            "byteLength" : 1152,
            "byteOffset" : 10816
        },
        {
            "buffer" : 0,
            "byteLength" : 1152,
            "byteOffset" : 11968
        },
        {
            "buffer" : 0,
            "byteLength" : 768,
            "byteOffset" : 13120
        },
        {
            "buffer" : 0,
            "byteLength" : 288,
            "byteOffset" : 13888
        },
        {
            "buffer" : 0,
            "byteLength" : 2292,
            "byteOffset" : 14176
        },
        {
            "buffer" : 0,
            "byteLength" : 2292,
            "byteOffset" : 16468
        },
        {
            "buffer" : 0,
            "byteLength" : 1528,
            "byteOffset" : 18760
        },
        {
            "buffer" : 0,
            "byteLength" : 576,
            "byteOffset" : 20288
        },
        {
            "buffer" : 0,
            "byteLength" : 6108,
            "byteOffset" : 20864
        },
        {
            "buffer" : 0,
            "byteLength" : 6108,
            "byteOffset" : 26972
        },
        {
            "buffer" : 0,
            "byteLength" : 4072,
            "byteOffset" : 33080
        },
        {
            "buffer" : 0,
            "byteLength" : 1872,
            "byteOffset" : 37152
        },
        {
            "buffer" : 0,
            "byteLength" : 2580,
            "byteOffset" : 39024
        },
        {
            "buffer" : 0,
            "byteLength" : 2580,
            "byteOffset" : 41604
        },
        {
            "buffer" : 0,
            "byteLength" : 1720,
            "byteOffset" : 44184
        },
        {
            "buffer" : 0,
            "byteLength" : 720,
            "byteOffset" : 45904
        }
    ],
    "buffers" : [
        {
            "byteLength" : 46624,
            "uri" : "data:application/octet-stream;base64,"
        }
    ]
}
